<?xml version="1.0" encoding="UTF-8"?>
<!DOCTYPE svg PUBLIC "-//W3C//DTD SVG 1.1//EN" "http://www.w3.org/Graphics/SVG/1.1/DTD/svg11.dtd">
<svg xmlns="http://www.w3.org/2000/svg" version="1.1" width="600px" height="182px" style="shape-rendering:geometricPrecision; text-rendering:geometricPrecision; image-rendering:optimizeQuality; fill-rule:evenodd; clip-rule:evenodd" xmlns:xlink="http://www.w3.org/1999/xlink">
<g><path style="opacity:1" fill="#eeeeee" d="M 268.5,32.5 C 267.507,41.3178 267.173,50.3178 267.5,59.5C 270.833,59.5 274.167,59.5 277.5,59.5C 278.434,60.5676 278.768,61.901 278.5,63.5C 275.167,63.5 271.833,63.5 268.5,63.5C 268.333,82.1696 268.5,100.836 269,119.5C 272.057,120.451 275.223,120.784 278.5,120.5C 278.5,121.833 278.5,123.167 278.5,124.5C 267.167,124.5 255.833,124.5 244.5,124.5C 244.5,123.5 244.5,122.5 244.5,121.5C 247.518,121.665 250.518,121.498 253.5,121C 254.056,120.617 254.389,120.117 254.5,119.5C 254.5,100.833 254.5,82.1667 254.5,63.5C 251.167,63.5 247.833,63.5 244.5,63.5C 244.5,62.1667 244.5,60.8333 244.5,59.5C 248.167,59.5 251.833,59.5 255.5,59.5C 255.5,55.5 255.5,51.5 255.5,47.5C 256.061,37.5423 260.394,29.709 268.5,24C 283.41,22.9832 288.243,29.4832 283,43.5C 279.304,46.4251 275.971,46.0917 273,42.5C 270.459,37.4282 271.292,33.0949 275.5,29.5C 274.062,26.1771 272.229,25.8438 270,28.5C 269.209,29.745 268.709,31.0783 268.5,32.5 Z"/></g>
<g><path style="opacity:1" fill="#f3f2f2" d="M 299.5,23.5 C 304.133,22.4582 307.299,24.1249 309,28.5C 310.426,33.7566 309.259,38.2566 305.5,42C 300.88,43.538 297.713,42.038 296,37.5C 294.608,32.0931 295.774,27.4265 299.5,23.5 Z"/></g>
<g><path style="opacity:1" fill="#f0f0f0" d="M 552.5,23.5 C 559.049,23.2099 562.716,26.3766 563.5,33C 562.696,39.8247 559.029,42.8247 552.5,42C 547.203,35.8345 547.203,29.6678 552.5,23.5 Z"/></g>
<g><path style="opacity:1" fill="#f9f9f9" d="M 55.5,119.5 C 55.9175,120.222 56.5842,120.722 57.5,121C 62.0204,121.814 66.3537,121.647 70.5,120.5C 82.4819,117.01 89.3152,109.01 91,96.5C 91.9017,89.3598 92.735,82.3598 93.5,75.5C 94.5,75.5 95.5,75.5 96.5,75.5C 96.5,91.5 96.5,107.5 96.5,123.5C 71.8333,123.5 47.1667,123.5 22.5,123.5C 22.5,122.833 22.5,122.167 22.5,121.5C 26.1817,121.665 29.8484,121.499 33.5,121C 34.7375,120.768 35.7375,120.268 36.5,119.5C 37.6579,89.9051 37.8246,60.2385 37,30.5C 32.3423,28.8088 27.5089,27.8088 22.5,27.5C 22.5,26.5 22.5,25.5 22.5,24.5C 38.5,24.5 54.5,24.5 70.5,24.5C 70.5,25.5 70.5,26.5 70.5,27.5C 65.8228,27.8345 61.1561,28.3345 56.5,29C 55.3333,29.5 54.5,30.3333 54,31.5C 53.3333,60.5 53.3333,89.5 54,118.5C 54.3826,119.056 54.8826,119.389 55.5,119.5 Z"/></g>
<g><path style="opacity:1" fill="#7c7979" d="M 268.5,32.5 C 268.5,41.1667 268.5,49.8333 268.5,58.5C 271.713,58.19 274.713,58.5233 277.5,59.5C 274.167,59.5 270.833,59.5 267.5,59.5C 267.173,50.3178 267.507,41.3178 268.5,32.5 Z"/></g>
<g><path style="opacity:1" fill="#858383" d="M 465.5,57.5 C 472.313,56.5088 479.313,56.1755 486.5,56.5C 486.5,57.8333 486.5,59.1667 486.5,60.5C 484.435,60.5172 482.435,60.8505 480.5,61.5C 481.79,60.0652 483.456,59.0652 485.5,58.5C 478.866,57.5033 472.2,57.17 465.5,57.5 Z"/></g>
<g><path style="opacity:1" fill="#eaeaea" d="M 172.5,57.5 C 172.335,60.8499 172.502,64.1832 173,67.5C 173.717,66.9558 174.217,66.2891 174.5,65.5C 179.249,55.858 185.082,55.1913 192,63.5C 193.932,68.1942 193.932,72.8609 192,77.5C 184.628,83.863 180.462,82.0297 179.5,72C 179.575,68.268 180.908,65.1013 183.5,62.5C 182.635,61.4173 181.635,61.2506 180.5,62C 176.828,66.5129 174.662,71.6796 174,77.5C 173.5,91.496 173.333,105.496 173.5,119.5C 176.337,121.402 179.671,122.069 183.5,121.5C 183.5,122.5 183.5,123.5 183.5,124.5C 172.167,124.5 160.833,124.5 149.5,124.5C 149.5,123.167 149.5,121.833 149.5,120.5C 152.579,120.74 155.579,120.407 158.5,119.5C 159.833,100.833 159.833,82.1667 158.5,63.5C 155.579,62.5934 152.579,62.2601 149.5,62.5C 149.5,61.1667 149.5,59.8333 149.5,58.5C 156.545,58.2955 163.545,57.6288 170.5,56.5C 171.416,56.5427 172.083,56.8761 172.5,57.5 Z"/></g>
<g><path style="opacity:1" fill="#f1f1f1" d="M 310.5,119.5 C 313.337,121.402 316.671,122.069 320.5,121.5C 320.5,122.5 320.5,123.5 320.5,124.5C 309.162,124.667 297.828,124.5 286.5,124C 285.167,123 285.167,122 286.5,121C 289.557,120.744 292.557,120.244 295.5,119.5C 296.833,100.833 296.833,82.1667 295.5,63.5C 292.557,62.7565 289.557,62.2565 286.5,62C 285.167,61 285.167,60 286.5,59C 294.174,57.9082 301.841,57.2416 309.5,57C 309.169,77.6708 309.503,98.5042 310.5,119.5 Z"/></g>
<g><path style="opacity:1" fill="#efefef" d="M 344.5,64.5 C 345.301,66.7929 345.968,66.4596 346.5,63.5C 348.14,58.8739 351.473,56.5406 356.5,56.5C 365.09,57.9224 370.256,62.9224 372,71.5C 372.333,87.5 372.667,103.5 373,119.5C 375.719,120.444 378.552,120.777 381.5,120.5C 381.5,121.5 381.5,122.5 381.5,123.5C 361.822,123.833 342.155,123.5 322.5,122.5C 324.766,121.686 327.1,121.186 329.5,121C 330.056,120.617 330.389,120.117 330.5,119.5C 331.662,101.338 331.829,83.0046 331,64.5C 328.174,62.6602 325.007,61.9935 321.5,62.5C 321.33,61.1779 321.663,60.0113 322.5,59C 329.836,58.0999 337.169,57.2665 344.5,56.5C 344.5,59.1667 344.5,61.8333 344.5,64.5 Z M 352.5,60.5 C 355.73,60.561 357.563,62.2277 358,65.5C 358.833,83.5093 358.666,101.509 357.5,119.5C 353.085,121.107 348.918,120.774 345,118.5C 344.138,104.796 344.472,91.1294 346,77.5C 346.515,71.1097 348.682,65.443 352.5,60.5 Z"/></g>
<g><path style="opacity:1" fill="#ecebeb" d="M 464.5,100.5 C 465.72,102.282 466.386,104.282 466.5,106.5C 463.786,122.237 459.62,137.571 454,152.5C 449.246,156.064 444.246,156.398 439,153.5C 435.189,147.179 435.689,141.345 440.5,136C 448.978,135.712 452.145,139.879 450,148.5C 449.626,149.416 449.126,150.25 448.5,151C 449.167,151.667 449.833,151.667 450.5,151C 454.242,142.707 456.909,134.04 458.5,125C 452.907,103.462 447.241,81.9618 441.5,60.5C 439.473,60.6621 437.473,60.4955 435.5,60C 434.167,59 434.167,58 435.5,57C 444.494,56.5002 453.494,56.3336 462.5,56.5C 462.5,57.8333 462.5,59.1667 462.5,60.5C 460.167,60.5 457.833,60.5 455.5,60.5C 458.5,73.8333 461.5,87.1667 464.5,100.5 Z"/></g>
<g><path style="opacity:1" fill="#dbdbdb" d="M 465.5,57.5 C 472.2,57.17 478.866,57.5033 485.5,58.5C 483.456,59.0652 481.79,60.0652 480.5,61.5C 477.826,64.982 475.992,68.982 475,73.5C 472.593,84.7367 469.76,95.7367 466.5,106.5C 466.386,104.282 465.72,102.282 464.5,100.5C 468.227,89.726 470.893,78.5594 472.5,67C 472.819,62.1388 470.486,59.9722 465.5,60.5C 465.5,59.5 465.5,58.5 465.5,57.5 Z"/></g>
<g><path style="opacity:1" fill="#f4f4f4" d="M 527.5,57.5 C 529.165,88.6533 530.165,119.987 530.5,151.5C 534.154,151.942 537.821,152.276 541.5,152.5C 541.5,153.5 541.5,154.5 541.5,155.5C 529.833,155.5 518.167,155.5 506.5,155.5C 506.5,154.5 506.5,153.5 506.5,152.5C 509.96,152.475 513.294,151.808 516.5,150.5C 517.457,144.561 517.79,138.561 517.5,132.5C 518.653,126.681 518.819,120.681 518,114.5C 516.961,115.244 516.461,116.244 516.5,117.5C 515.293,122.37 512.126,125.037 507,125.5C 502.823,124.911 499.157,123.244 496,120.5C 485.007,103.932 483.674,86.5991 492,68.5C 500.219,55.6276 509.886,54.2943 521,64.5C 521.667,65.8333 522.333,67.1667 523,68.5C 524.428,64.693 525.928,61.0264 527.5,57.5 Z M 506.5,61.5 C 510.994,61.1627 513.828,63.1627 515,67.5C 518.29,82.1578 518.29,96.8245 515,111.5C 510.051,124.683 505.718,124.683 502,111.5C 499.621,95.6964 500.288,80.0297 504,64.5C 505.045,63.6266 505.878,62.6266 506.5,61.5 Z"/></g>
<g><path style="opacity:1" fill="#e8e8e8" d="M 563.5,119.5 C 566.337,121.402 569.671,122.069 573.5,121.5C 573.5,122.5 573.5,123.5 573.5,124.5C 562.167,124.5 550.833,124.5 539.5,124.5C 539.5,123.167 539.5,121.833 539.5,120.5C 542.579,120.74 545.579,120.407 548.5,119.5C 549.833,100.833 549.833,82.1667 548.5,63.5C 545.579,62.5934 542.579,62.2601 539.5,62.5C 539.5,61.1667 539.5,59.8333 539.5,58.5C 546.545,58.2955 553.545,57.6288 560.5,56.5C 561.442,56.6082 562.275,56.9415 563,57.5C 563.5,78.164 563.667,98.8306 563.5,119.5 Z"/></g>
<g><path style="opacity:1" fill="#eeeeee" d="M 120.5,57.5 C 133.741,58.2329 142.074,65.0662 145.5,78C 150.438,95.8377 146.104,110.838 132.5,123C 117.076,127.7 106.91,122.2 102,106.5C 97.1494,90.4264 99.9827,75.9264 110.5,63C 113.55,60.4972 116.883,58.6639 120.5,57.5 Z M 121.5,61.5 C 128.177,62.0117 131.677,65.6784 132,72.5C 134.134,86.5594 133.8,100.559 131,114.5C 129.101,120.365 125.268,122.365 119.5,120.5C 117.703,118.869 116.536,116.869 116,114.5C 112.324,97.6204 112.991,80.9538 118,64.5C 119.145,63.3636 120.312,62.3636 121.5,61.5 Z"/></g>
<g><path style="opacity:1" fill="#807e7e" d="M 172.5,57.5 C 173.167,60.1667 173.833,62.8333 174.5,65.5C 174.217,66.2891 173.717,66.9558 173,67.5C 172.502,64.1832 172.335,60.8499 172.5,57.5 Z"/></g>
<g><path style="opacity:1" fill="#ededed" d="M 213.5,57.5 C 222.361,56.5123 228.861,59.8457 233,67.5C 233.2,84.8549 233.867,102.188 235,119.5C 236.183,120.731 237.349,120.731 238.5,119.5C 239.154,117.885 239.654,116.218 240,114.5C 240.5,107.842 240.666,101.175 240.5,94.5C 241.833,94.5 243.167,94.5 244.5,94.5C 244.666,102.174 244.5,109.841 244,117.5C 241.568,124.302 236.735,126.802 229.5,125C 225.258,123.755 222.758,120.922 222,116.5C 218.712,124.276 212.879,127.109 204.5,125C 197.749,121.68 194.416,116.18 194.5,108.5C 195.829,94.0075 203.829,86.5075 218.5,86C 219.126,85.2496 219.626,84.4162 220,83.5C 220.667,77.1667 220.667,70.8333 220,64.5C 215.38,60.2938 211.214,60.9605 207.5,66.5C 212.118,69.6691 213.618,74.0024 212,79.5C 206.627,86.5793 202.294,85.9126 199,77.5C 198.238,66.7636 203.071,60.097 213.5,57.5 Z M 219.5,89.5 C 220.655,96.6549 220.822,103.988 220,111.5C 219.229,116.387 216.562,119.72 212,121.5C 210.347,121.18 209.347,120.18 209,118.5C 208.333,111.833 208.333,105.167 209,98.5C 209.731,96.1013 210.898,93.9347 212.5,92C 215.104,91.6097 217.438,90.7763 219.5,89.5 Z"/></g>
<g><path style="opacity:1" fill="#676464" d="M 255.5,47.5 C 255.5,51.5 255.5,55.5 255.5,59.5C 251.833,59.5 248.167,59.5 244.5,59.5C 247.625,58.5206 250.958,58.1872 254.5,58.5C 254.185,54.6286 254.518,50.9619 255.5,47.5 Z"/></g>
<g><path style="opacity:1" fill="#ededed" d="M 429.5,113.5 C 430.49,107.69 430.823,101.69 430.5,95.5C 431.5,95.5 432.5,95.5 433.5,95.5C 433.91,104.25 433.41,112.916 432,121.5C 426.301,126.377 420.301,126.71 414,122.5C 413.209,121.255 412.709,119.922 412.5,118.5C 412.719,117.325 412.386,116.325 411.5,115.5C 410.702,115.957 410.369,116.624 410.5,117.5C 406.299,125.291 399.966,127.458 391.5,124C 384.814,117.98 382.647,110.48 385,101.5C 386.511,95.6351 390.011,91.4684 395.5,89C 400.333,88.2882 404.833,86.7882 409,84.5C 409.667,77.5 409.667,70.5 409,63.5C 403.958,60.3732 399.791,61.3732 396.5,66.5C 401.188,70.0224 402.688,74.6891 401,80.5C 395.256,86.4161 390.923,85.4161 388,77.5C 387.058,66.768 391.891,60.268 402.5,58C 410.9,56.6193 417.4,59.4526 422,66.5C 423.292,83.7674 423.959,101.101 424,118.5C 424.725,120.158 425.892,120.658 427.5,120C 428.669,117.993 429.335,115.827 429.5,113.5 Z M 408.5,90.5 C 409.491,96.979 409.824,103.646 409.5,110.5C 409.013,115.825 406.347,119.492 401.5,121.5C 399.222,121.219 398.055,119.885 398,117.5C 396.912,109.64 397.579,101.974 400,94.5C 402.228,91.9221 405.061,90.5887 408.5,90.5 Z"/></g>
<g><path style="opacity:1" fill="#b0afaf" d="M 527.5,57.5 C 528.209,56.596 529.209,56.2627 530.5,56.5C 530.5,88.1667 530.5,119.833 530.5,151.5C 530.165,119.987 529.165,88.6533 527.5,57.5 Z"/></g>
<g><path style="opacity:1" fill="#999797" d="M 346.5,63.5 C 345.968,66.4596 345.301,66.7929 344.5,64.5C 345.167,64.1667 345.833,63.8333 346.5,63.5 Z"/></g>
<g><path style="opacity:1" fill="#6a6767" d="M 408.5,90.5 C 408.56,89.9569 408.893,89.6236 409.5,89.5C 410.819,96.656 410.819,103.656 409.5,110.5C 409.824,103.646 409.491,96.979 408.5,90.5 Z"/></g>
<g><path style="opacity:1" fill="#9f9e9e" d="M 433.5,95.5 C 432.5,95.5 431.5,95.5 430.5,95.5C 430.823,101.69 430.49,107.69 429.5,113.5C 429.5,107.167 429.5,100.833 429.5,94.5C 431.099,94.2322 432.432,94.5655 433.5,95.5 Z"/></g>
<g><path style="opacity:1" fill="#828080" d="M 412.5,118.5 C 411.833,118.167 411.167,117.833 410.5,117.5C 410.369,116.624 410.702,115.957 411.5,115.5C 412.386,116.325 412.719,117.325 412.5,118.5 Z"/></g>
<g><path style="opacity:1" fill="#b7b6b6" d="M 36.5,119.5 C 35.7375,120.268 34.7375,120.768 33.5,121C 29.8484,121.499 26.1817,121.665 22.5,121.5C 26.9949,120.578 31.6616,119.911 36.5,119.5 Z"/></g>
<g><path style="opacity:1" fill="#a09f9f" d="M 55.5,119.5 C 60.453,120.329 65.453,120.663 70.5,120.5C 66.3537,121.647 62.0204,121.814 57.5,121C 56.5842,120.722 55.9175,120.222 55.5,119.5 Z"/></g>
<g><path style="opacity:1" fill="#a7a6a6" d="M 173.5,119.5 C 176.941,120.097 180.275,120.763 183.5,121.5C 179.671,122.069 176.337,121.402 173.5,119.5 Z"/></g>
<g><path style="opacity:1" fill="#b1b0b0" d="M 254.5,119.5 C 254.389,120.117 254.056,120.617 253.5,121C 250.518,121.498 247.518,121.665 244.5,121.5C 247.684,120.677 251.017,120.01 254.5,119.5 Z"/></g>
<g><path style="opacity:1" fill="#a5a4a4" d="M 310.5,119.5 C 313.941,120.097 317.275,120.763 320.5,121.5C 316.671,122.069 313.337,121.402 310.5,119.5 Z"/></g>
<g><path style="opacity:1" fill="#a7a6a6" d="M 563.5,119.5 C 566.941,120.097 570.275,120.763 573.5,121.5C 569.671,122.069 566.337,121.402 563.5,119.5 Z"/></g>
<g><path style="opacity:1" fill="#8e8b8b" d="M 93.5,75.5 C 94.5676,74.5655 95.901,74.2322 97.5,74.5C 97.5,91.1667 97.5,107.833 97.5,124.5C 72.3278,124.831 47.3278,124.498 22.5,123.5C 47.1667,123.5 71.8333,123.5 96.5,123.5C 96.5,107.5 96.5,91.5 96.5,75.5C 95.5,75.5 94.5,75.5 93.5,75.5 Z"/></g>
<g><path style="opacity:1" fill="#959393" d="M 330.5,119.5 C 330.389,120.117 330.056,120.617 329.5,121C 327.1,121.186 324.766,121.686 322.5,122.5C 342.155,123.5 361.822,123.833 381.5,123.5C 361.674,124.497 341.674,124.83 321.5,124.5C 321.5,123.167 321.5,121.833 321.5,120.5C 324.57,120.632 327.57,120.299 330.5,119.5 Z"/></g>
<g><path style="opacity:1" fill="#9f9e9e" d="M 517.5,132.5 C 517.821,127.305 517.487,122.305 516.5,117.5C 516.461,116.244 516.961,115.244 518,114.5C 518.819,120.681 518.653,126.681 517.5,132.5 Z"/></g>
</svg>
